<?xml version="1.0" standalone="no"?><!DOCTYPE svg PUBLIC "-//W3C//DTD SVG 1.1//EN" "http://www.w3.org/Graphics/SVG/1.1/DTD/svg11.dtd"><svg t="1607389914345" class="icon" viewBox="0 0 1024 1024" version="1.1" xmlns="http://www.w3.org/2000/svg" p-id="3158" xmlns:xlink="http://www.w3.org/1999/xlink" width="200" height="200"><defs><style type="text/css"></style></defs><path d="M866.95366963 168.39977458H620.7726773c0-60.47675341-48.93702064-109.41377406-109.41377404-109.41377403-60.36990489 0-109.41377406 48.93702064-109.41377404 109.41377403H155.76413832C140.69837356 168.39977458 128.41069413 180.68745404 128.41069413 195.75321744v711.18953126c0 15.06576337 12.28767941 27.35344419 27.35344419 27.35344421h711.18953131c15.06576337 0 27.35344419-12.28767941 27.35344278-27.35344421V195.75321744c0-15.06576337-12.28767941-27.35344419-27.35344278-27.35344286z m-355.59476637-54.70688698c30.23837671 0 54.70688704 24.46851032 54.70688706 54.70688698 0 30.23837671-24.46851032 54.70688704-54.70688706 54.70688703-30.23837671 0-54.70688704-24.46851032-54.70688701-54.70688703 0-30.23837671 24.46851032-54.70688704 54.70688701-54.70688698zM839.60022543 879.58930588H183.11758114V223.10666161h109.41377404v82.06032984c0 15.06576337 12.28767941 27.35344419 27.35344421 27.35344424h382.94820917c15.06576337 0 27.35344419-12.28767941 27.3534428-27.35344424v-82.06032984h109.41377407V879.58930588z m-382.94820918-86.76170399L281.20532085 590.02746228l50.00551289-50.00551422L456.65201625 638.10968775 691.50697283 430.60817399l50.00551426 50.00551425-284.86047084 312.21391365z m0 0" p-id="3159" fill="#d81e06"></path></svg>